<?xml version="1.0" standalone="no"?>
<!DOCTYPE svg PUBLIC "-//W3C//DTD SVG 20010904//EN"
 "http://www.w3.org/TR/2001/REC-SVG-20010904/DTD/svg10.dtd">
<svg version="1.0" xmlns="http://www.w3.org/2000/svg"
 width="200.000000pt" height="200.000000pt" viewBox="0 0 200.000000 200.000000"
 preserveAspectRatio="xMidYMid meet">
<metadata>
Created by potrace 1.11, written by Peter Selinger 2001-2013
</metadata>
<g transform="translate(0.000000,200.000000) scale(0.100000,-0.100000)"
fill="#000000" stroke="none">
<path d="M0 1788 c1 -188 3 -213 18 -225 16 -12 16 -14 0 -24 -17 -9 -18 -49
-18 -614 l0 -605 23 9 c12 4 45 12 72 16 57 8 75 19 75 47 0 23 23 68 63 120
24 32 33 37 87 43 63 7 68 14 62 75 -1 8 0 34 4 58 5 39 7 42 37 42 43 0 58
-11 66 -51 l7 -33 22 47 c28 59 41 153 32 237 -3 35 -2 114 3 175 5 60 10 140
10 178 1 37 5 67 9 67 5 0 8 7 8 16 0 11 6 14 18 10 14 -5 14 -4 -2 9 -17 13
-21 13 -36 -3 -10 -9 -15 -21 -12 -26 2 -5 -1 -7 -9 -4 -9 3 -15 23 -17 52 -3
38 -6 47 -19 42 -11 -5 -14 -2 -9 10 3 8 6 20 6 25 0 5 5 9 11 9 7 0 17 7 23
15 10 13 27 19 77 24 5 1 17 39 23 73 2 14 72 100 89 109 9 5 17 16 17 23 0 8
7 16 15 20 8 3 15 12 15 21 0 8 5 15 11 15 5 0 15 13 20 29 5 15 21 34 34 41
14 7 25 17 25 21 0 23 161 77 230 78 19 0 45 -7 57 -15 12 -8 31 -15 42 -17
15 -2 64 -24 100 -44 7 -4 9 -53 2 -53 -4 0 -20 13 -36 30 -15 16 -32 27 -38
23 -5 -3 -4 -9 3 -13 7 -5 -36 -6 -96 -4 -82 2 -98 1 -64 -6 25 -5 62 -9 82
-9 20 -1 38 -4 40 -8 2 -5 29 -21 61 -37 61 -31 125 -86 174 -152 48 -65 69
-55 33 16 -24 47 -25 57 -5 40 18 -15 20 0 3 20 -9 10 -6 9 7 -1 11 -9 28 -19
37 -22 23 -8 46 -46 55 -87 6 -31 5 -33 -8 -20 -8 8 -23 34 -33 58 -11 23 -25
42 -33 42 -18 0 -17 -19 2 -26 8 -3 20 -21 27 -40 6 -19 14 -34 18 -34 3 0 6
-26 6 -58 1 -32 -2 -48 -6 -38 -11 31 -18 7 -19 -63 0 -35 -2 -66 -5 -68 -2
-2 -17 18 -33 46 -15 28 -34 51 -40 51 -7 0 -13 5 -13 11 0 5 5 7 10 4 14 -9
13 -5 -10 40 -11 22 -20 31 -20 22 0 -10 -5 -15 -10 -12 -6 3 -8 19 -5 36 6
36 -8 38 -23 4 -7 -14 -28 -35 -48 -47 -37 -22 -37 -25 -18 -90 7 -25 -18 -23
-41 2 -10 11 -30 20 -44 20 -14 0 -42 4 -61 10 -19 5 -51 7 -70 3 -34 -7 -34
-7 25 -19 40 -8 50 -12 30 -13 -16 -1 -48 -7 -69 -15 l-39 -14 27 -14 27 -14
-28 -13 -28 -13 23 -9 c13 -5 28 -7 33 -4 4 3 30 -5 56 -19 38 -19 44 -26 31
-31 -10 -4 -39 0 -65 9 -65 22 -64 14 3 -18 76 -36 125 -33 138 9 16 57 27 73
22 35 -3 -19 -8 -45 -12 -57 -4 -15 -1 -22 12 -25 18 -3 28 -58 10 -58 -5 0
-3 -6 6 -12 23 -19 27 -51 9 -68 -8 -8 -17 -13 -20 -12 -2 2 -7 -2 -12 -9 -7
-12 -23 -16 -76 -22 -12 -1 -24 -5 -28 -9 -4 -4 -18 -2 -32 3 -14 5 -29 7 -34
4 -5 -3 -23 24 -40 60 -29 62 -49 82 -49 50 0 -20 -9 -19 -72 5 -65 24 -77 24
-106 0 -18 -15 -22 -27 -21 -69 2 -37 7 -52 18 -55 27 -8 82 -1 89 11 4 6 20
13 37 14 16 2 38 12 47 21 28 28 42 22 66 -27 19 -40 20 -45 5 -45 -14 0 -14
-2 2 -20 16 -17 16 -20 2 -20 -8 0 -17 4 -19 9 -1 5 -22 12 -46 15 -34 3 -42
1 -38 -9 4 -10 -2 -11 -27 -4 -18 6 -83 11 -144 12 -102 1 -114 0 -127 -18
-23 -30 -19 -38 12 -30 39 11 107 10 187 -3 136 -22 145 -24 145 -33 0 -5 7
-9 15 -9 8 0 15 -9 15 -20 0 -26 4 -25 46 6 45 35 43 15 -4 -34 -21 -22 -37
-43 -35 -48 3 -13 -42 -44 -75 -52 -23 -5 -112 -6 -177 -2 -31 1 -88 -11 -103
-23 -11 -8 -18 -5 -33 13 -15 21 -19 22 -19 7 0 -10 19 -37 43 -60 43 -41 52
-77 21 -77 -29 0 -13 -33 41 -85 30 -29 55 -57 55 -63 0 -6 10 -18 22 -26 21
-15 21 -16 3 -18 -11 0 -26 -1 -32 -1 -21 1 -15 -5 30 -31 66 -38 93 -40 174
-11 40 14 87 25 104 25 31 0 32 -1 15 -19 -11 -12 -27 -18 -39 -15 -12 2 -32
-4 -46 -12 -13 -9 -51 -18 -84 -20 -88 -4 -143 -15 -126 -24 28 -15 115 -19
199 -11 47 5 86 8 86 8 1 -1 -22 -24 -52 -50 -39 -35 -68 -52 -110 -63 -42
-11 -67 -25 -98 -56 -23 -23 -64 -56 -92 -74 -29 -18 -59 -40 -68 -49 -9 -9
-20 -14 -26 -10 -6 3 -7 0 -4 -9 5 -14 85 -16 680 -16 l674 0 0 181 c0 169 -1
181 -17 174 -10 -5 -36 -11 -57 -14 -30 -5 -43 -13 -56 -36 -15 -27 -21 -30
-56 -27 -58 6 -73 24 -76 96 l-3 61 -16 -45 c-15 -43 -18 -45 -55 -44 -26 1
-65 15 -118 45 -68 38 -81 50 -95 86 -9 23 -26 52 -37 65 -12 13 -27 33 -33
46 -6 12 -27 29 -46 37 -36 14 -46 41 -21 51 8 3 16 14 19 25 3 10 10 19 17
19 6 0 8 -4 5 -10 -3 -5 -4 -10 -2 -10 6 0 48 67 59 93 4 10 21 25 38 35 17
10 28 23 25 30 -3 7 0 22 6 33 10 20 11 20 34 -5 24 -26 49 -26 59 0 7 18 39
18 118 -2 76 -19 115 -41 99 -57 -7 -7 -3 -17 15 -34 28 -25 44 -29 61 -12 17
17 30 4 38 -37 5 -27 2 -41 -11 -55 -25 -28 -54 -25 -54 6 0 27 -6 30 -30 15
-12 -7 -11 -12 5 -30 12 -13 18 -33 17 -53 l-2 -32 24 30 c14 17 25 33 26 38
0 11 38 9 45 -3 10 -17 23 -11 19 8 -5 17 29 62 46 62 6 0 10 163 10 435 0
314 -3 435 -11 435 -7 0 -9 10 -7 24 4 19 1 23 -10 18 -12 -4 -14 -1 -9 12 4
10 7 20 7 22 0 2 7 4 15 4 13 0 15 24 15 160 l0 160 -829 0 c-723 0 -830 -2
-841 -15 -16 -19 -36 -19 -44 0 -4 12 -30 15 -146 15 l-140 0 0 -212z m260
178 c0 -3 -4 -8 -10 -11 -5 -3 -10 -1 -10 4 0 6 5 11 10 11 6 0 10 -2 10 -4z
m-80 -105 c0 -4 -3 -11 -7 -14 -8 -9 -34 13 -28 24 6 9 35 1 35 -10z m-75 -31
c3 -6 -1 -13 -10 -16 -19 -8 -30 0 -20 15 8 14 22 14 30 1z m45 -51 c0 -5 -7
-9 -15 -9 -15 0 -20 12 -9 23 8 8 24 -1 24 -14z m45 -8 c3 -5 -2 -16 -10 -24
-8 -9 -15 -24 -16 -34 -1 -12 -3 -10 -8 7 -4 14 -5 33 -3 43 5 18 27 23 37 8z
m1665 -6 c0 -8 -7 -15 -15 -15 -16 0 -20 12 -8 23 11 12 23 8 23 -8z m-1337
-101 c10 -10 -12 -44 -28 -44 -18 0 -18 5 -5 31 11 19 22 24 33 13z m-236 -51
c3 -7 -6 -23 -19 -35 -13 -13 -31 -35 -41 -50 -10 -16 -24 -28 -32 -28 -14 0
-14 3 0 30 8 16 24 34 35 40 26 14 26 30 0 37 -11 3 -20 10 -20 15 0 14 73 5
77 -9z m43 -66 c0 -33 -30 -73 -41 -56 -9 15 -3 46 13 67 16 19 28 14 28 -11z
m-250 -37 c0 -5 -9 -14 -20 -20 -15 -8 -20 -8 -20 3 0 8 3 17 7 20 10 10 33 8
33 -3z m190 -27 c0 -7 -7 -13 -15 -13 -15 0 -21 31 -8 43 8 8 23 -12 23 -30z
m1310 -17 c0 -33 -11 -39 -25 -13 -7 15 -8 26 0 33 14 16 25 7 25 -20z m-1450
18 c0 -16 -23 -44 -35 -44 -19 0 -19 9 2 32 16 17 33 24 33 12z m1807 -31 c4
-12 -34 -29 -44 -19 -3 3 -3 12 1 21 7 18 37 17 43 -2z m-709 -19 c12 -4 30
-20 38 -37 l16 -30 -54 5 c-29 3 -62 9 -73 13 -16 5 -17 5 -5 -4 22 -15 8 -21
-35 -14 -37 6 -38 7 -14 16 23 10 22 11 -16 16 -36 6 -38 7 -15 14 14 3 37 7
52 7 15 0 30 5 33 10 7 11 39 13 73 4z m-1140 -16 c-6 -18 -28 -21 -28 -4 0 9
7 16 16 16 9 0 14 -5 12 -12z m1492 -86 c5 -20 10 -50 9 -67 l-1 -30 -9 33
c-5 17 -14 32 -19 32 -6 0 -10 5 -10 11 0 5 5 7 11 3 11 -6 8 10 -9 55 -3 9
-1 12 6 7 6 -4 16 -23 22 -44z m-275 18 c11 -17 -5 -31 -19 -17 -14 12 -12 27
4 27 5 0 12 -4 15 -10z m285 -155 c0 -19 -4 -35 -8 -35 -4 0 -6 16 -4 35 2 19
6 35 8 35 2 0 4 -16 4 -35z m-128 -52 c-8 -7 -19 -10 -23 -7 -5 3 -9 0 -9 -7
0 -10 -3 -10 -11 -2 -7 7 -9 25 -5 49 l7 37 28 -29 c24 -25 25 -31 13 -41z
m-35 -125 c-3 -8 -6 -5 -6 6 -1 11 2 17 5 13 3 -3 4 -12 1 -19z m37 -55 c-10
-42 -24 -56 -41 -42 -11 10 -10 15 7 31 11 10 20 23 20 28 0 6 5 10 10 10 6 0
8 -11 4 -27z m-40 -75 c21 -29 20 -38 -1 -38 -31 0 -46 16 -38 39 8 27 20 27
39 -1z m-1344 -395 c0 -5 -5 -15 -10 -23 -8 -12 -10 -11 -10 8 0 12 5 22 10
22 6 0 10 -3 10 -7z"/>
<path d="M1190 1405 c7 -8 27 -15 44 -15 29 1 30 1 12 15 -11 8 -31 15 -44 15
-21 0 -22 -2 -12 -15z"/>
<path d="M1261 1531 c-8 -5 -9 -11 -3 -15 5 -3 15 1 22 9 14 16 3 20 -19 6z"/>
<path d="M565 1430 c3 -5 8 -10 11 -10 2 0 4 5 4 10 0 6 -5 10 -11 10 -5 0 -7
-4 -4 -10z"/>
<path d="M755 1426 c-59 -27 -93 -35 -99 -23 -2 7 -5 2 -5 -10 -1 -22 12 -25
38 -8 10 5 16 4 19 -3 2 -7 21 -12 41 -12 31 0 40 5 49 25 9 19 9 24 -1 22 -6
-1 -11 4 -9 11 3 15 4 15 -33 -2z"/>
<path d="M830 1419 c-7 -11 -10 -23 -7 -25 2 -2 9 7 15 21 14 30 7 33 -8 4z"/>
<path d="M983 1403 c-13 -5 -18 -35 -7 -46 9 -8 44 15 44 29 0 14 -20 23 -37
17z"/>
<path d="M951 1384 c0 -11 3 -14 6 -6 3 7 2 16 -1 19 -3 4 -6 -2 -5 -13z"/>
<path d="M922 1373 c-16 -29 -15 -48 3 -63 23 -19 28 -7 18 42 -9 40 -10 42
-21 21z"/>
<path d="M677 1143 l-18 -38 20 25 c18 22 28 50 18 50 -2 0 -11 -17 -20 -37z"/>
<path d="M722 1164 c2 -10 15 -18 30 -20 25 -2 27 0 18 17 -13 24 -53 26 -48
3z"/>
<path d="M783 916 c0 -10 16 -14 61 -14 34 0 72 -3 86 -6 21 -5 22 -5 5 3 -11
5 -15 10 -10 12 14 2 -74 17 -111 18 -20 1 -31 -4 -31 -13z"/>
<path d="M1754 776 c-6 -16 11 -46 27 -46 13 0 10 23 -6 44 -13 17 -15 18 -21
2z"/>
<path d="M589 572 c-64 -41 -122 -109 -115 -135 3 -12 0 -28 -7 -36 -10 -12
-9 -14 6 -8 10 4 22 7 26 7 4 0 15 15 25 33 29 49 89 127 99 127 5 0 -3 -13
-16 -30 -14 -16 -38 -57 -54 -89 -17 -37 -34 -60 -44 -60 -19 -1 -29 -39 -18
-69 8 -20 -6 -44 -29 -54 -5 -1 -21 -22 -35 -45 -15 -24 -50 -57 -82 -77 -30
-20 -55 -40 -55 -46 0 -14 31 -12 60 5 34 19 91 20 84 1 -4 -11 0 -13 18 -9
18 4 20 3 8 -6 -13 -9 -12 -11 3 -11 10 0 16 -4 13 -9 -7 -10 23 -20 42 -14 6
3 10 9 6 14 -7 13 19 7 29 -6 4 -6 10 -5 16 3 7 11 9 11 14 -2 3 -8 1 -16 -6
-19 -8 -2 -6 -9 6 -21 15 -16 17 -16 17 -1 0 9 5 13 10 10 6 -3 13 0 16 8 3 8
13 13 23 10 9 -2 29 5 44 17 l27 21 -27 42 c-14 23 -37 55 -49 70 -21 25 -24
39 -24 115 1 48 5 107 11 132 16 69 23 160 12 160 -5 0 -29 -13 -54 -28z m-62
-301 c-1 -11 -6 -17 -14 -14 -10 4 -11 9 -2 19 15 19 18 18 16 -5z m-3 -52
c-8 -13 -21 -11 -27 5 -4 10 0 12 14 9 10 -3 16 -9 13 -14z m126 -49 c0 -5
-12 -10 -27 -9 l-28 1 25 8 c14 4 26 8 28 9 1 1 2 -3 2 -9z"/>
<path d="M522 568 c5 -15 28 -18 29 -3 0 6 -7 12 -17 13 -10 3 -15 -1 -12 -10z"/>
<path d="M1840 569 c0 -5 5 -7 10 -4 6 3 10 8 10 11 0 2 -4 4 -10 4 -5 0 -10
-5 -10 -11z"/>
<path d="M256 401 c-15 -17 -15 -19 -1 -25 32 -12 59 3 49 27 -8 22 -27 21
-48 -2z"/>
<path d="M245 360 c-3 -5 -1 -10 4 -10 6 0 11 5 11 10 0 6 -2 10 -4 10 -3 0
-8 -4 -11 -10z"/>
<path d="M296 344 c-20 -19 -20 -24 -2 -24 7 0 16 9 19 20 6 24 3 25 -17 4z"/>
<path d="M250 300 c-6 -11 -8 -20 -6 -20 3 0 10 9 16 20 6 11 8 20 6 20 -3 0
-10 -9 -16 -20z"/>
<path d="M190 229 c0 -5 5 -7 10 -4 6 3 10 8 10 11 0 2 -4 4 -10 4 -5 0 -10
-5 -10 -11z"/>
<path d="M48 173 c7 -3 16 -2 19 1 4 3 -2 6 -13 5 -11 0 -14 -3 -6 -6z"/>
<path d="M36 136 c3 -8 1 -17 -5 -21 -6 -3 -11 -14 -11 -23 0 -13 5 -12 20 8
24 30 24 36 6 43 -10 4 -13 1 -10 -7z"/>
<path d="M431 41 c-10 -7 -7 -9 12 -8 14 1 23 5 20 10 -6 9 -15 9 -32 -2z"/>
<path d="M536 26 c10 -8 21 -12 24 -10 5 6 -21 24 -34 24 -6 0 -1 -6 10 -14z"/>
<path d="M490 20 c0 -5 5 -10 11 -10 5 0 7 5 4 10 -3 6 -8 10 -11 10 -2 0 -4
-4 -4 -10z"/>
</g>
</svg>
